<svg width="16" height="16" viewBox="0 0 16 16" fill="none" xmlns="http://www.w3.org/2000/svg">
<path d="M15.125 2V11.75C15.125 12.0484 15.0064 12.3345 14.7955 12.5455C14.5845 12.7565 14.2983 12.875 14 12.875C13.7016 12.875 13.4154 12.7565 13.2045 12.5455C12.9935 12.3345 12.875 12.0484 12.875 11.75V4.71875L2.7959 14.7959C2.58455 15.0073 2.29791 15.126 1.99902 15.126C1.70014 15.126 1.41349 15.0073 1.20215 14.7959C0.990802 14.5846 0.87207 14.2979 0.87207 13.9991C0.87207 13.7002 0.990802 13.4135 1.20215 13.2022L11.2812 3.125H4.24996C3.95159 3.125 3.66544 3.00647 3.45446 2.7955C3.24349 2.58452 3.12496 2.29837 3.12496 2C3.12496 1.70163 3.24349 1.41548 3.45446 1.2045C3.66544 0.993526 3.95159 0.875 4.24996 0.875H14C14.2983 0.875 14.5845 0.993526 14.7955 1.2045C15.0064 1.41548 15.125 1.70163 15.125 2Z" fill="white"/>
</svg>
