<svg fill="none" height="32" viewBox="0 0 33 32" width="33" xmlns="http://www.w3.org/2000/svg"><path d="m24.6786 12.5679c-.316-.7613-1.024-1.2346-1.848-1.2346l-3.8093.0933 2.288-5.30136c.268-.62.2053-1.32799-.1654-1.89066-.3706-.564-.9959-.90133-1.6706-.90133h-5.9733c-1.1174 0-2.044.69867-2.4067 1.79067l-3.48932 8.90928c-.20666.6174-.10667 1.2734.27466 1.8014.38134.528.97203.832 1.62403.832l3.76533-.088-3.84671 11.2053c-.1.2933.01467.6173.27734.7813.10933.068.23069.1014.35337.1014.172 0 .3427-.0667.472-.1947l13.7226-13.724c.5814-.5826.7467-1.4187.432-2.18z" fill="#4871ff"/></svg>