<svg fill="none" height="32" viewBox="0 0 33 32" width="33" xmlns="http://www.w3.org/2000/svg"><path d="m10.5 24.0133c0 .9734.2933 1.8533.84 2.6133-3.57333-.2266-6.84-1.5333-6.84-3.9466v-1.1733c1.4 1.0933 3.46667 1.8266 6 2.0666zm.0533-5.4266c-.0133.0133-.0133.0266-.0133.0399-.0266.1334-.04.2668-.04.4001v2.5466c-3.22667-.3733-6-1.6533-6-3.8799v-1.1734c1.4 1.1067 3.48004 1.84 6.04 2.0667zm5.2-4.88c-2.0266.6267-3.6133 1.6533-4.4933 2.9333-3.54666-.2267-6.76-1.5333-6.76-3.9333v-.9067c1.74667 1.3733 4.54667 2.1733 8 2.1733 1.16 0 2.2533-.0933 3.2533-.2666zm4.7467-1.9067v.9067c0 .12-.0134.2267-.0267.3333-1.0533 0-2.0533.0933-2.9866.2533 1.2-.36 2.2133-.8667 3.0133-1.4933zm-8-7.8c-4 0-8 1.33332-8 3.98665 0 2.68005 4 3.98665 8 3.98665s8-1.3066 8-3.98665c0-2.65333-4-3.98665-8-3.98665zm8 21.0133c-3.3467 0-6.2-.8799-8-2.3066v1.3066c0 2.6534 4 3.9867 8 3.9867s8-1.3333 8-3.9867v-1.3066c-1.8 1.4267-4.6533 2.3066-8 2.3066zm0-9.9733c-4.4133 0-8 1.7867-8 3.9867s3.5867 3.9866 8 3.9866 8-1.7866 8-3.9866-3.5867-3.9867-8-3.9867z" fill="#4871ff"/></svg>