<svg fill="none" height="16" viewBox="0 0 144 16" width="144" xmlns="http://www.w3.org/2000/svg"><g fill="#58595a"><path d="m124.597 12.2753-.53.501-.467-.4694v-7.57715l-1.591-1.34076-2.167 2.15144.172.17185.374-.32718.451.37428.016 6.76392-.405.5011 1.995 1.7771 2.339-2.3388-.188-.1869"/><path d="m121.854 2.87443c.84-.11089 1.608-.53388 2.151-1.18494.141-.15058.262-.31903.359-.50104-.47.06807-.949.03094-1.403-.10872-.181-.05349-.349-.143294-.493-.263907-.145-.120613-.264-.2695-.349-.437544l-2.011 2.011151c.501.37438 1.124.54695 1.746.4835"/><path d="m111.502 12.2753-.53.501-.468-.4679v-7.57865l-1.59-1.34076-2.167 2.15144.171.17185.374-.32718.451.37428.015 6.76392-.405.5011 1.996 1.7771 2.338-2.3388-.187-.1869"/><path d="m107.513 3.09538c.684-.07855 1.347-.28614 1.954-.61176.72-.42463 1.395-.92173 2.014-1.48356l.018-.016032-1.873-.841235-.008.010523c-.005.006514-.505.677395-1.075 1.339764-.433.48071-.902.92822-1.403 1.33876l-.014.01203.304.25051h.081"/><path d="m133.623 12.2392-.467.4209-.436-.3602v-7.24347l.094-.01554v-.16934l-1.762-1.5031-1.512 1.4084c-.002 0-.294-.02455-.98-.59673-.31-.25449-.589-.54383-.832-.86228l-.012-.01703-1.715 2.17498-.007.00802-.201.25052 2.101 2.60537c-.682.17052-1.313.50001-1.843.96148-.357.31638-.618.72652-.754 1.18382-.135.4574-.14.9436-.013 1.4035.556 2.0412 2.591 3.0248 2.612 3.0348l.009.0045 1.868-1.6189 1.7 1.4661 2.362-2.3619-.212-.1754m-5.506-3.60189.007-.00902-.003-.00401.794.98404.256-.23098-2.901-3.59893c.387.25024.85.35386 1.306.29211.641-.03419 1.246-.304 1.7-.75757l.543.43791.005 7.21484-.132.1318c-.869-.5059-1.518-1.3174-1.822-2.2762-.122-.3594-.164-.7416-.121-1.11894.043-.37737.169-.74059.368-1.06355z"/><path clip-rule="evenodd" d="m98.3591 3.60694c-.4655-.21671-.9586-.36844-1.4655-.45093-.6326.51969-1.3233.96439-2.0582 1.32523-.8705.35166-1.7914.56223-2.7282.62379v7.57667s.0932.2505 1.1223 1.0762c.5728.4488 1.2084.8111 1.8864 1.0752.5827-.6602 1.28-1.2095 2.0583-1.6214.8895-.379 1.8135-.6714 2.7592-.8733v-7.15672c-.3762-.65516-.9191-1.19862-1.5743-1.57474zm-1.2481 9.16896c-.4386-.1317-.8559-.3259-1.239-.5767-.3878-.2321-.7203-.5458-.9745-.9194v-6.48792c.4388.13124.8563.32532 1.2395.57619.3882.23173.7208.54573.9746.9199z" fill-rule="evenodd"/><path d="m58.9729.00901747-.011-.00901747-1.8158 1.81524 2.7557 2.2792-2.7792 1.43646.0095 7.1177c.321.4386.7158.818 1.1669 1.1213.5918.4219 1.2249.7828 1.8894 1.0772l.0105.004.0075-.0085c.5823-.6578 1.2781-1.2055 2.0543-1.6168.8887-.3778 1.8114-.6699 2.7556-.8723h.0126v-7.28856zm3.1385 12.68518253c-.413-.0651-.8065-.2206-1.1524-.4555-.3886-.2272-.7364-.5178-1.0291-.8597v-7.26201l2.182 1.80372z"/><path clip-rule="evenodd" d="m69.6264 4.85251v4.08492l2.1824-1.68347s-1.0286-1.37233-1.4339-1.80873c-.2117-.24118-.4653-.442-.7485-.59272zm-2.8058.21845v7.45184c.579.3015 1.141.6345 1.6834.9976.5249.3942 1.0058.8437 1.4345 1.3408l3.4301-2.7753-.1874-.2179-1.0602.8267-2.4941-1.8538v-1.40294l4.4742-3.58589s-1.2787-2.01115-2.5102-2.74416c-.6096.55856-1.3042 1.01656-2.0577 1.3568-.8678.341-1.7829.54617-2.7131.60825z" fill-rule="evenodd"/><path d="m106.149 11.6641-.938.9374-.424-.3588v-7.36514h1.6v-.37427h-1.646v-4.282337l-3.056 2.427507-.006.25653h.297v1.5988h-.937v.39732h.96l.004 7.63529-.446.4459 2.02 1.7421 2.817-2.8173-.243-.2435"/><path d="m112.625 5.05743v6.01737c.004.476-.037.9512-.125 1.419 0 0 1.122.6238 1.496.8728.375.249 1.715 1.3723 1.715 1.3723s1.654-1.4345 1.965-1.6534c.311-.219 1.434-1.0607 1.434-1.0607l-.155-.218-.936.6544c-.045.0366-.1.0603-.157.0686-.058.0083-.117.0009-.171-.0215-.186-.0782-2.322-1.8087-2.322-1.8087v-5.59658c.22.31542.465.6125.733.88833.392.34366.815.65152 1.262.9199 0 0 .78-.62379 1.123-.93543.25-.24028.48-.50106.686-.77961 0 0-1.263-1.07571-1.481-1.29366s-.717-.79564-.717-.79564c-.491.70325-1.205 1.21989-2.027 1.46602-.754.2447-1.533.40681-2.322.4835"/><path d="m142.823 3.44962v.01653c-.027.25728-.111.50522-.247.72549-.078.10325-.183.18409-.302.23446-.12.05037-.251.06852-.38.05263-.364-.01352-.723-.09191-1.06-.23147-.646-.28158-1.219-.70629-1.677-1.24206l-.02-.02455-.008.03056c-.128.34835-.336.66154-.608.91405-.272.2525-.6.43717-.957.53895-.689.2403-1.413.36491-2.142.36876-.197 0-.313-.01052-.314-.01052h-.017v2.43301c0 .01754-.085 1.76113.66 2.41348.364.29038.77.52496 1.203.69596l-2.688 2.7672.257.231.744-.7661c.467.1836.912.4203 1.325.7054.55.5225 1.031 1.113 1.431 1.7572l.012.02.014-.019c.444-.6251.978-1.1807 1.586-1.6484.844-.4457 1.76-.7406 2.705-.8713h.014v-2.1044c0-.017.132-1.74608-.66-2.41395-.391-.30143-.822-.54587-1.281-.726l1.56-1.60632c.227-.19881.424-.42833.587-.6819.036-.0501.07-.10021.103-.1448.235-.42391.369-.8962.393-1.38035v-.01553l-.235-.01803m-5.02 4.54587v-3.151c.294.41435.681.75308 1.131.98828s.949.36013 1.457.36451c.229.00145.457-.02224.681-.07065l-2.433 2.50517zm1.762 1.38786v3.61645c-.471-.4971-1.023-.9106-1.632-1.223-.476-.1293-.969-.1847-1.462-.1643-.1 0-.185-.0001-.25.0035l2.664-2.7407z"/><path d="m49.2188 3.60694c-.4656-.21666-.9587-.36839-1.4656-.45093-.6324.51975-1.3229.96445-2.0577 1.32523-.8704.35163-1.7914.56221-2.7281.62379v7.57667s.0937.2505 1.1228 1.0762c.5727.4488 1.2083.8111 1.8864 1.0752.5825-.6602 1.2796-1.2094 2.0577-1.6214.8896-.379 1.8136-.6714 2.7592-.8733v-7.15672c-.3762-.65512-.9196-1.19856-1.5747-1.57474zm-1.2471 9.16896c-.4388-.1317-.8562-.3259-1.2396-.5767-.3876-.232-.72-.5458-.974-.9194v-6.48792c.4388.1313.8563.32537 1.2396.57619.3881.23186.7207.54584.9745.9199z"/><path d="m91.8041.733511-.007.006514c-.2241.326405-.5198.597295-.8645.791975s-.7294.30801-1.1246.33134c-.1326-.00021-.2649-.01212-.3953-.03557-.9967-.23681-1.8957-.77641-2.5733-1.544689l-.0111-.014029-1.9575 2.018668-.0115.01202.0125.01103c.6515.57361 1.3925 1.03683 2.1935 1.37132.5423.19851 1.1167.2945 1.694.28308l.004.53962-2.3904 2.65547-4.3635-6.570547-.007-.010519-.0115.004006c-.6036.187156-1.2229.318973-1.8504.393814-.5421.054616-1.1158.065636-1.5031.065636-.2505 0-.4108-.00501-.4108-.00501h-.0165v.27106l.009.00451c.3434.16809.6686.37108.9705.60574.5513.60219 1.0486 1.25169 1.4861 1.94101l.1252.18237.007 7.42177h-.0812c-.4108-.0122-.82.0572-1.2039.2043-.3838.1471-.7347.3689-1.0322.6525-.3122.2683-.5536.6093-.7027.9931-.1491.3837-.2013.7982-.152 1.2069-.0006.2957.0829.5855.2407.8356.1579.25.3835.4501.6506.5769l.011.0035.1589-.2225.0145-.0311-.0381.0071c-.0325 0-.2069-.0221-.4309-.448-.1487-.3028-.194-.646-.1292-.9771.0649-.3311.2365-.6318.4885-.8561.2384-.1431.5126-.2155.7906-.209.5854.0162 1.143.253 1.5612.6629.5592.5505 1.0293 1.1847 1.3934 1.8799l.0085.0175 2.4596-1.936-.0085-.012c-.41-.5889-.9024-1.1158-1.462-1.5647-.643-.4574-1.4023-.7232-2.1901-.7666l-.007-6.91428 7.2149 10.78178.01.0145 2.9626-2.4736.0105-.009-.2004-.3007-.7911.5772-1.2496-1.8763v-7.34368c.2396-.03175.4755-.08662.7045-.16384.696-.2888 1.2911-.77688 1.7105-1.40289.2302-.38798.3951-.81115.488-1.25259.0182-.121284.0284-.243632.0306-.366254v-.015531h-.237m-3.0388 6.776475-1.242 1.37935-.952-1.43045 2.1885-2.43052zm-.004.52258v2.72063l-1.0401-1.56575z"/><path d="m11.7931 1.07221c-.714-.430114-1.5393-.639311-2.37192-.60124h-.22797c-.18137 0-.73953.036575-1.44598.08267-1.00858.066638-2.26417.15031-3.06883.167846-1.35279.031064-4.090438-.123755-4.114989-.125759h-.016536v.017034c.012487.418309.128517.826989.337698 1.189449.392807.62429 1.110287 1.00458 2.254647 1.19747.39089.05602.78563.08065 1.18044.07366.6288 0 1.33074-.03708 2.05424-.07967v9.99113l-.44392-.0647c-.33469-.0501-.64283-.0931-.88432-.1307-.06316-.0098-.12698-.0147-.1909-.0146-.51863.0483-1.00517.2725-1.37884.6354l-2.542746 2.2275.276066.207.01002-.008c.4037-.327.87004-.568 1.37033-.708 1.00976-.044 2.02097.0422 3.0087.2565.28609.0446.58972.0922.91539.1413.762.0733 1.51358.2304 2.24113.4685l.01052.005.00802-.008c.01002-.0105 1.00657-1.0362 2.23565-2.0573 1.229-1.0211 2.2972-1.7992 2.3077-1.8067l.0065-.005v-7.89228c.0228-.61146-.105-1.21915-.3723-1.76958-.2672-.55043-.6657-1.02671-1.1603-1.38693m-5.07099 1.90393c.75155-.04359 1.40289-.07916 1.88539-.06814.38959.01759.76364.1579 1.0687.40086.30505.24297.5255.57615.6298.95193l.004.13277-3.58739 3.98422zm3.58739 4.40609-3.58739 3.98417-.00401-2.46855 3.5879-3.98421zm-.004.52007v5.6306c-.1553-.012-1.32573-.1042-2.07077-.2505-.32617-.0636-.80716-.1418-1.51262-.2465l-.00401-1.1524z"/><path d="m4.9695 10.4365-.00301-6.29045.25853-.35574-.20893-.20893-2.84787 2.80128v6.30054c-.00855.5499-.21897 1.0776-.59122 1.4825-.619278.6514-.957976.9891-.961483.9926l-.010523.0105.207929.243 3.062817-2.7803c.63848-.5601 1.03099-1.3489 1.09275-2.196"/><path d="m19.3948 12.2533-.5301.501-.451-.4459v-7.57865l-1.6068-1.36231-2.1885 2.17249.1934.19339.3753-.32817.4359.36024.019 6.74891-.4148.5106 2.0181 1.7972 2.3494-2.3489.011-.0115-.2089-.2089"/><path d="m16.3585 2.912c.0984 0 .1967-.0072.2941-.02154.819-.10761 1.5701-.51193 2.1109-1.13634l.0501-.05411c.1413-.15086.2627-.31925.3612-.50104l.014-.02856-.031.00552c-.1548.0229-.3111.03395-.4675.03306-.315.00407-.6284-.04366-.9279-.14129-.1782-.05338-.3438-.142228-.4868-.261219-.1431-.118991-.2605-.265664-.3454-.431207l-.009-.022048-2.0408 2.040714.0141.01102c.4256.31279.9356.49002 1.4635.50855"/><path d="m28.4845 12.2392-.468.4209-.4354-.3602v-7.24347l.0932-.01554v-.16934l-1.7621-1.5031-1.5106 1.4084c-.003 0-.2946-.02455-.9805-.59673-.3094-.25463-.5885-.54395-.8318-.86228l-.012-.01703-1.715 2.17498-.006.00902-.2005.25052 2.1004 2.60537c-.6814.17029-1.3126.49981-1.8418.96149-.3571.31637-.6183.72651-.7539 1.18381-.1357.4574-.1404.9436-.0137 1.4035.5567 2.0412 2.5918 3.0248 2.6119 3.0348l.0095.0045 1.8684-1.6189 1.7 1.4661 2.3493-2.3494.012-.0125-.2109-.1754m-5.5059-3.60189.0066-.00901v-.00351l.7931.98353.2565-.23098-2.9005-3.59892c.3864.25031.8496.35394 1.3057.2921.6407-.03423 1.2462-.30403 1.7-.75756l.5437.4379.0045 7.21484-.1318.1318c-.8692-.5057-1.5188-1.3173-1.8218-2.2762-.1239-.359-.1666-.7411-.1251-1.11868.0415-.37757.1662-.74123.3651-1.06481z"/><path d="m23.7152 3.09689c.6783-.083 1.3354-.29093 1.938-.61327.7297-.41046 1.4064-.90868 2.0151-1.48356l.0176-.016533-1.8729-.841235-.0075.010523c-.0055.006514-.5051.677395-1.0752 1.339765-.4336.48061-.9026.92812-1.4029 1.33876l-.0151.01202.3047.25052c.0315 0 .0641.00351.0972.00351"/><path d="m34.6993 3.43959-.011-.00952-1.7917 1.7917v-.50755l-1.6384-1.37784-2.173 2.15745.233.23298.3437-.34371.459.40083.004 6.71687-.4319.48 2.0813 1.7977 2.3133-2.3449-.2245-.2239-.5146.4509-.4369-.4304v-6.64318l.1914-.00351 1.8203 1.67897 1.8348-1.99161.011-.01203-2.0703-1.81925"/><path d="m41.7203 12.2533-.5301.501-.4509-.4459v-7.57865l-1.6068-1.36231-2.1881 2.17249.1934.19339.3753-.32817.4359.36024.0191 6.74891-.4154.5106 2.0182 1.7972 2.3603-2.3604-.2094-.2089"/><path d="m38.684 2.912c.0985-.00001.1968-.00721.2941-.02154.819-.10775 1.57-.51205 2.1109-1.13634l.0501-.05411c.1414-.15085.2628-.31924.3612-.50104l.0136-.02856-.0311.00552c-.1547.02291-.311.03397-.4674.03306-.315.00405-.6285-.04368-.928-.14129-.1782-.05338-.3438-.142228-.4868-.261219s-.2605-.265664-.3454-.431207l-.009-.022048-2.0412 2.040714.014.01102c.4258.31289.936.49012 1.464.50855"/></g></svg>