<svg fill="none" height="16" viewBox="0 0 80 16" width="80" xmlns="http://www.w3.org/2000/svg"><path d="m26.7809 12.3714h-1.2064v-8.41883h.929c2.4721 0 2.709 2.41089 2.709 4.36616 0 2.09637-.535 4.05267-2.4316 4.05267zm.7901-8.91223h-5.7704v.11652c.5327.15941.8694.63489.8694 1.40445v9.92126c0 .4264-.0868.8007-.2307 1.0986h3.2882c-.0983-.2397-.153-.5726-.153-1.0986v-1.9756h2.0355c2.6092 0 4.7832-1.7595 4.7832-4.86252 0-2.68919-1.916-4.60411-4.8222-4.60411zm46.8971 9.08953c-1.4418 0-2.0545-1.184-2.0545-4.40732 0-3.27904.6914-4.34673 2.0741-4.34673 1.522 0 2.0368 1.6392 2.0368 4.34673 0 2.66872-.4949 4.40732-2.0564 4.40732zm0-9.36697c-3.064 0-5.0803 2.23099-5.0803 5.09816 0 3.00571 1.858 4.86231 5.0803 4.86231 3.1224 0 5.0787-2.2726 5.0787-5.13804 0-3.00311-1.9755-4.82243-5.0787-4.82243zm-10.0585 9.96047c-1.2649 0-2.5901-.4338-3.4591-.9663v-1.9772h.0996c1.0261 1.9951 2.9824 2.1338 3.497 2.1338 1.4614 0 1.9174-.7115 1.9174-1.4823 0-1.1076-1.2049-1.22412-1.9966-1.42366l-.4742-.1193c-1.6002-.3342-3.1431-.92769-3.1431-3.0031 0-1.73844 1.206-3.12241 3.9137-3.12241 1.779 0 2.5902.43408 3.024.43408.2969 0 .3551-.07768.4744-.19698h.0596v2.15438h-.0796c-.4347-.61292-1.4235-1.6804-3.5962-1.6804-.6737 0-1.7594.19848-1.7594 1.32443 0 .75227.6142 1.00665 1.5417 1.20491l1.8179.39631c1.3643.29664 2.6093 1.20363 2.6093 2.78692-.0002 2.11442-1.7984 3.53682-4.4464 3.53682zm-8.5575 0c-1.2658 0-2.5897-.4338-3.4592-.9663v-1.9772h.0971c1.0299 1.9951 2.9865 2.1338 3.4997 2.1338 1.4623 0 1.9158-.7115 1.9158-1.4823 0-1.1076-1.2049-1.22412-1.9962-1.42366l-.4719-.1193c-1.6014-.3342-3.1441-.92769-3.1441-3.0031 0-1.73844 1.2059-3.12241 3.9126-3.12241 1.7801 0 2.5912.43408 3.0251.43408.2969 0 .3564-.07768.4757-.19698h.057v2.15438h-.079c-.4326-.61292-1.4226-1.6804-3.5968-1.6804-.6712 0-1.7579.19848-1.7579 1.32443 0 .75227.6117 1.00665 1.5404 1.20491l1.8204.39631c1.3629.29664 2.6079 1.20363 2.6079 2.78692-.0002 2.11442-1.7984 3.53682-4.4466 3.53682zm-7.1943-5.71104h-3.7351c.0788-1.67869.3743-3.71569 1.9756-3.71569 1.2439 0 1.7595 1.68018 1.7595 3.39963zm2.7872-.27722c0-2.80613-2.1354-3.97221-4.3092-3.97221-3.5174 0-5.2964 2.46937-5.2964 5.03968 0 2.90469 2.0368 4.92079 5.9298 4.92079 1.1454 0 2.489-.3747 3.5565-1.0263l.0207-1.8968h-.0788c-.3963.6906-1.5624 2.1521-3.3787 2.1521-2.5513 0-2.9658-2.2323-2.9658-4.18863h6.5223v-1.02863zm-14.5471 4.15126c0 .789.377 1.1659.8901 1.4418v.1195h-4.6835v-.1195c.5337-.1178.8888-.7888.8888-1.5999v-6.02846c0-1.12574-.5324-1.42408-.8707-1.54295v-.11652h3.7753v1.38247c.8512-.96782 2.0562-1.44202 2.7478-1.44202 1.126 0 1.7598.65283 1.7598 1.64027 0 .8705-.5143 1.89679-1.7386 1.89679-.9109 0-1.5029-.65324-1.5029-1.56237 0-.15664.0399-.63106.1774-.8084-.276 0-1.0274.43536-1.4433.77062v5.96867zm-19.4259-4.56571 1.3242-1.64027c.2772-.35639.6336-.73071.6336-1.0679 0-.17735-.1387-.3756-.5339-.45585v-.11652h2.292v.11652c-.6324.2578-1.2451 1.06876-1.266 1.1076l-2.0948 2.55025 3.3217 4.84138c.2568.3961.4924.5931.6699.6721v.1195h-4.2468v-.1195c.0375-.0387.2759-.0984.2759-.276 0-.1383-.1592-.3768-.2565-.5128l-1.9783-2.90578-1.7581 2.17248c-.2759.3577-.6311.7335-.6311 1.0677 0 .1786.1375.3756.5312.4546v.1195h-2.2905v-.1195c.631-.2563 1.2437-1.0662 1.2647-1.1074l2.5496-3.10149-2.9449-4.28847c-.258-.39567-.4936-.59371-.6724-.67395v-.11652h4.2481v.11652c-.0388.04012-.2747.09987-.2747.2785 0 .13871.1569.37475.2553.51453zm-17.133865 6.00731c.710015-.1579 1.085615-.8692 1.085615-1.9549v-8.79651c0-.98767-.632119-1.718384-1.085615-1.8967945v-.0597548h8.556035l2.15433-.0388407v3.63502h-.1385c-.6129-2.58846-2.35131-2.983265-3.279-2.983265h-3.24277v5.297265h1.99645c1.54296 0 2.13496-1.0869 2.33194-2.17507h.19826v4.86233h-.19826c-.37561-1.64048-1.12596-2.13239-2.33194-2.13239h-1.99645v5.78851h2.4316c3.32197 0 3.91267-2.39188 4.28847-3.79483h.1385l-.0401 4.36893h-10.868565z" fill="#58595a"/></svg>