<svg width="34" height="34" viewBox="0 0 34 34" fill="none" xmlns="http://www.w3.org/2000/svg">
<rect width="34" height="34" rx="17" fill="white"/>
<path d="M19.25 17.7124H14C13.6925 17.7124 13.4375 17.4574 13.4375 17.1499C13.4375 16.8424 13.6925 16.5874 14 16.5874H19.25C19.5575 16.5874 19.8125 16.8424 19.8125 17.1499C19.8125 17.4574 19.5575 17.7124 19.25 17.7124Z" fill="#A73719"/>
<path d="M17.285 20.7124H14C13.6925 20.7124 13.4375 20.4574 13.4375 20.1499C13.4375 19.8424 13.6925 19.5874 14 19.5874H17.285C17.5925 19.5874 17.8475 19.8424 17.8475 20.1499C17.8475 20.4574 17.5925 20.7124 17.285 20.7124Z" fill="#A73719"/>
<path d="M18.5 13.0625H15.5C14.78 13.0625 13.4375 13.0625 13.4375 11C13.4375 8.9375 14.78 8.9375 15.5 8.9375H18.5C19.22 8.9375 20.5625 8.9375 20.5625 11C20.5625 11.72 20.5625 13.0625 18.5 13.0625ZM15.5 10.0625C14.7575 10.0625 14.5625 10.0625 14.5625 11C14.5625 11.9375 14.7575 11.9375 15.5 11.9375H18.5C19.4375 11.9375 19.4375 11.7425 19.4375 11C19.4375 10.0625 19.2425 10.0625 18.5 10.0625H15.5Z" fill="#A73719"/>
<path d="M19.25 25.0626H14.75C10.535 25.0626 9.6875 23.1276 9.6875 20.0001V15.5001C9.6875 12.0801 10.925 10.6176 13.97 10.4601C14.27 10.4451 14.5475 10.6776 14.5625 10.9926C14.5775 11.3076 14.3375 11.5626 14.03 11.5776C11.9 11.6976 10.8125 12.3351 10.8125 15.5001V20.0001C10.8125 22.7751 11.36 23.9376 14.75 23.9376H19.25C22.64 23.9376 23.1875 22.7751 23.1875 20.0001V15.5001C23.1875 12.3351 22.1 11.6976 19.97 11.5776C19.6625 11.5626 19.4225 11.2926 19.4375 10.9851C19.4525 10.6776 19.7225 10.4376 20.03 10.4526C23.075 10.6176 24.3125 12.0801 24.3125 15.4926V19.9926C24.3125 23.1276 23.465 25.0626 19.25 25.0626Z" fill="#A73719"/>
</svg>
