<svg fill="none" height="32" viewBox="0 0 33 32" width="33" xmlns="http://www.w3.org/2000/svg"><path d="m17.6536 27.0866c.092.12.0774.2586.0681.3106-.02.1174-.0681.1961-.1921.2601-.436.2293-.696.3427-.696.3427s-10.21337-4.6401-11.7747-12.7068c-.96-4.96 1.13346-9.93325 6.4668-9.95991 3.9733-.01334 5.3066 3.98665 5.3066 3.98665s1.3333-3.99999 5.3067-3.98665c5.3466.02666 7.4266 4.99991 6.4666 9.95991-.08.4-.1733.7868-.2933 1.1601-.0813.2067-.2226.2733-.3826.2733-.1067 0-.216-.052-.284-.1-1.1734-.8134-2.6-1.2933-4.1467-1.2933-4.04 0-7.3333 3.2933-7.3333 7.3333.0013 1.6627.5533 3.1934 1.4879 4.42zm11.18-4.42c0 2.9467-2.3866 5.3334-5.3333 5.3334s-5.3333-2.3867-5.3333-5.3334c0-2.9466 2.3866-5.3333 5.3333-5.3333s5.3333 2.3867 5.3333 5.3333zm-3 0c0-.3733-.2933-.6666-.6666-.6666h-1v-1c0-.3734-.2934-.6667-.6667-.6667s-.6667.2933-.6667.6667v1h-1c-.3733 0-.6666.2933-.6666.6666 0 .3734.2933.6667.6666.6667h1v1c0 .3733.2934.6667.6667.6667s.6667-.2934.6667-.6667v-1h1c.3733 0 .6666-.2933.6666-.6667z" fill="#4871ff"/></svg>