<svg width="56" height="56" viewBox="0 0 56 56" fill="none" xmlns="http://www.w3.org/2000/svg">
<rect width="56" height="56" rx="28" fill="#D9EBFF"/>
<path d="M35.6533 42.3335H20.3466C17.0266 42.3335 14.3333 39.6402 14.3333 36.3202V27.3468C14.3333 24.0268 17.0266 21.3335 20.3466 21.3335H35.6533C38.9733 21.3335 41.6666 24.0268 41.6666 27.3468V29.2668C41.6666 29.8135 41.2133 30.2668 40.6666 30.2668H37.9733C37.5066 30.2668 37.0799 30.4402 36.7733 30.7602L36.7599 30.7735C36.3866 31.1335 36.2133 31.6268 36.2533 32.1335C36.3333 33.0135 37.1733 33.7201 38.1333 33.7201H40.6666C41.2133 33.7201 41.6666 34.1735 41.6666 34.7201V36.3068C41.6666 39.6401 38.9733 42.3335 35.6533 42.3335ZM20.3466 23.3335C18.1333 23.3335 16.3333 25.1335 16.3333 27.3468V36.3202C16.3333 38.5335 18.1333 40.3335 20.3466 40.3335H35.6533C37.8666 40.3335 39.6666 38.5335 39.6666 36.3202V35.7335H38.1333C36.1199 35.7335 34.4133 34.2402 34.2533 32.3202C34.1466 31.2268 34.5466 30.1469 35.3466 29.3602C36.0399 28.6535 36.9733 28.2668 37.9733 28.2668H39.6666V27.3468C39.6666 25.1335 37.8666 23.3335 35.6533 23.3335H20.3466Z" fill="#006FE5"/>
<path d="M15.3333 29.5465C14.7866 29.5465 14.3333 29.0932 14.3333 28.5465V22.4533C14.3333 20.4666 15.5866 18.6665 17.4399 17.9598L28.0266 13.9598C29.1199 13.5465 30.3333 13.6932 31.2799 14.3599C32.2399 15.0266 32.7999 16.1066 32.7999 17.2666V22.3332C32.7999 22.8799 32.3466 23.3332 31.7999 23.3332C31.2533 23.3332 30.7999 22.8799 30.7999 22.3332V17.2666C30.7999 16.7599 30.5599 16.2932 30.1333 15.9999C29.7066 15.7065 29.1999 15.6399 28.7199 15.8265L18.1333 19.8265C17.0533 20.2399 16.3199 21.2933 16.3199 22.4533V28.5465C16.3333 29.1065 15.8799 29.5465 15.3333 29.5465Z" fill="#006FE5"/>
<path d="M38.1333 35.7332C36.12 35.7332 34.4133 34.2399 34.2533 32.3199C34.1466 31.2132 34.5466 30.1333 35.3466 29.3466C36.0266 28.6533 36.96 28.2666 37.96 28.2666H40.7333C42.0533 28.3066 43.0666 29.3465 43.0666 30.6265V33.3733C43.0666 34.6533 42.0533 35.6932 40.7733 35.7332H38.1333ZM40.7066 30.2666H37.9733C37.5066 30.2666 37.08 30.4399 36.7733 30.7599C36.3866 31.1333 36.2 31.6399 36.2533 32.1466C36.3333 33.0266 37.1733 33.7332 38.1333 33.7332H40.7466C40.92 33.7332 41.08 33.5733 41.08 33.3733V30.6265C41.08 30.4265 40.92 30.2799 40.7066 30.2666Z" fill="#006FE5"/>
<path d="M30.6666 29H21.3333C20.7866 29 20.3333 28.5467 20.3333 28C20.3333 27.4533 20.7866 27 21.3333 27H30.6666C31.2133 27 31.6666 27.4533 31.6666 28C31.6666 28.5467 31.2133 29 30.6666 29Z" fill="#006FE5"/>
</svg>
