<svg width="922" height="1034" viewBox="0 0 922 1034" fill="none" xmlns="http://www.w3.org/2000/svg">
<g opacity="0.28">
<g filter="url(#filter0_f_49_276)">
<ellipse cx="427.152" cy="166.808" rx="427.152" ry="166.808" transform="matrix(0.9771 -0.21278 0.230927 0.972971 183.547 575.613)" fill="#A13618"/>
<path d="M1027.01 562.624C1029.7 573.971 1027.23 589.242 1013.61 609.049C999.971 628.892 976.835 650.559 944.4 672.236C879.7 715.476 783.422 755.147 670.915 779.647C558.409 804.147 453.688 808.247 375.83 796.051C336.8 789.938 306.159 779.981 284.901 767.738C263.683 755.518 254.562 742.77 251.869 731.423C249.176 720.076 251.646 704.804 265.264 684.997C278.906 665.155 302.041 643.487 334.476 621.811C399.176 578.571 495.454 538.9 607.961 514.399C720.468 489.899 825.188 485.8 903.046 497.995C942.076 504.109 972.717 514.065 993.975 526.308C1015.19 538.529 1024.31 551.276 1027.01 562.624Z" stroke="#1A1A1A" stroke-width="61"/>
</g>
<g filter="url(#filter1_f_49_276)">
<ellipse cx="351.991" cy="172.829" rx="351.991" ry="172.829" transform="matrix(0.801593 -0.597871 0.612685 0.790328 114.269 543.956)" fill="#A73719"/>
<path d="M760.017 277.892C778.188 301.331 779.53 344.467 749.151 404.279C719.766 462.134 664.518 526.648 589.515 582.589C514.512 638.53 436.367 673.508 371.676 685.82C304.797 698.549 262.778 685.752 244.607 662.313C226.437 638.874 225.095 595.738 255.474 535.926C284.859 478.071 340.107 413.557 415.11 357.616C490.113 301.675 568.258 266.697 632.948 254.385C699.828 241.656 741.847 254.453 760.017 277.892Z" stroke="#1A1A1A" stroke-width="61"/>
</g>
<g filter="url(#filter2_f_49_276)">
<ellipse cx="244.775" cy="111.305" rx="244.775" ry="111.305" transform="matrix(0.858943 0.512071 -0.495997 0.868324 694.265 162.112)" fill="#A73719"/>
<path d="M1033.36 493.827C1027.69 503.749 1007.67 515.452 961.863 510.5C919.034 505.871 864.425 487.174 809.227 454.267C754.029 421.36 711.231 381.987 686.216 346.17C659.46 307.86 659.588 284.301 665.256 274.379C670.924 264.456 690.937 252.753 736.748 257.705C779.578 262.335 834.187 281.031 889.385 313.938C944.582 346.845 987.38 386.219 1012.4 422.036C1039.15 460.346 1039.02 483.904 1033.36 493.827Z" stroke="#1A1A1A" stroke-width="61"/>
</g>
</g>
<g filter="url(#filter3_f_49_276)">
<circle cx="903.5" cy="94.5" r="320.5" stroke="#25D366" stroke-width="20"/>
</g>
<g filter="url(#filter4_f_49_276)">
<circle cx="386" cy="632" r="110" stroke="#A73719" stroke-width="20"/>
</g>
<defs>
<filter id="filter0_f_49_276" x="20.2661" y="260.974" width="1238.34" height="772.099" filterUnits="userSpaceOnUse" color-interpolation-filters="sRGB">
<feFlood flood-opacity="0" result="BackgroundImageFix"/>
<feBlend mode="normal" in="SourceGraphic" in2="BackgroundImageFix" result="shape"/>
<feGaussianBlur stdDeviation="100" result="effect1_foregroundBlur_49_276"/>
</filter>
<filter id="filter1_f_49_276" x="0.861816" y="19.1856" width="1002.9" height="901.834" filterUnits="userSpaceOnUse" color-interpolation-filters="sRGB">
<feFlood flood-opacity="0" result="BackgroundImageFix"/>
<feBlend mode="normal" in="SourceGraphic" in2="BackgroundImageFix" result="shape"/>
<feGaussianBlur stdDeviation="100" result="effect1_foregroundBlur_49_276"/>
</filter>
<filter id="filter2_f_49_276" x="431.877" y="25.8183" width="834.857" height="716.569" filterUnits="userSpaceOnUse" color-interpolation-filters="sRGB">
<feFlood flood-opacity="0" result="BackgroundImageFix"/>
<feBlend mode="normal" in="SourceGraphic" in2="BackgroundImageFix" result="shape"/>
<feGaussianBlur stdDeviation="100" result="effect1_foregroundBlur_49_276"/>
</filter>
<filter id="filter3_f_49_276" x="535.2" y="-273.8" width="736.6" height="736.6" filterUnits="userSpaceOnUse" color-interpolation-filters="sRGB">
<feFlood flood-opacity="0" result="BackgroundImageFix"/>
<feBlend mode="normal" in="SourceGraphic" in2="BackgroundImageFix" result="shape"/>
<feGaussianBlur stdDeviation="18.9" result="effect1_foregroundBlur_49_276"/>
</filter>
<filter id="filter4_f_49_276" x="228.2" y="474.2" width="315.6" height="315.6" filterUnits="userSpaceOnUse" color-interpolation-filters="sRGB">
<feFlood flood-opacity="0" result="BackgroundImageFix"/>
<feBlend mode="normal" in="SourceGraphic" in2="BackgroundImageFix" result="shape"/>
<feGaussianBlur stdDeviation="18.9" result="effect1_foregroundBlur_49_276"/>
</filter>
</defs>
</svg>
