<svg width="34" height="34" viewBox="0 0 34 34" fill="none" xmlns="http://www.w3.org/2000/svg">
<rect width="34" height="34" rx="17" fill="white"/>
<path d="M21.305 25.0625H12.695C10.8275 25.0625 9.3125 23.5475 9.3125 21.68V16.6325C9.3125 14.765 10.8275 13.25 12.695 13.25H21.305C23.1725 13.25 24.6875 14.765 24.6875 16.6325V17.7125C24.6875 18.02 24.4325 18.275 24.125 18.275H22.61C22.3475 18.275 22.1075 18.3725 21.935 18.5525L21.9275 18.56C21.7175 18.7625 21.62 19.04 21.6425 19.325C21.6875 19.82 22.16 20.2175 22.7 20.2175H24.125C24.4325 20.2175 24.6875 20.4725 24.6875 20.78V21.6725C24.6875 23.5475 23.1725 25.0625 21.305 25.0625ZM12.695 14.375C11.45 14.375 10.4375 15.3875 10.4375 16.6325V21.68C10.4375 22.925 11.45 23.9375 12.695 23.9375H21.305C22.55 23.9375 23.5625 22.925 23.5625 21.68V21.35H22.7C21.5675 21.35 20.6075 20.51 20.5175 19.43C20.4575 18.815 20.6825 18.2075 21.1325 17.765C21.5225 17.3675 22.0475 17.15 22.61 17.15H23.5625V16.6325C23.5625 15.3875 22.55 14.375 21.305 14.375H12.695Z" fill="#A73719"/>
<path d="M9.875 17.87C9.5675 17.87 9.3125 17.615 9.3125 17.3075V13.88C9.3125 12.7625 10.0175 11.75 11.06 11.3525L17.015 9.1025C17.63 8.87 18.3125 8.95254 18.845 9.32754C19.385 9.70254 19.7 10.31 19.7 10.9625V13.8125C19.7 14.12 19.445 14.375 19.1375 14.375C18.83 14.375 18.575 14.12 18.575 13.8125V10.9625C18.575 10.6775 18.44 10.415 18.2 10.25C17.96 10.085 17.675 10.0475 17.405 10.1525L11.45 12.4025C10.8425 12.635 10.43 13.2275 10.43 13.88V17.3075C10.4375 17.6225 10.1825 17.87 9.875 17.87Z" fill="#A73719"/>
<path d="M22.6999 21.3499C21.5674 21.3499 20.6074 20.5099 20.5174 19.4299C20.4574 18.8074 20.6824 18.1999 21.1324 17.7574C21.5149 17.3674 22.0399 17.1499 22.6024 17.1499H24.1624C24.9049 17.1724 25.4749 17.7574 25.4749 18.4774V20.0224C25.4749 20.7424 24.9049 21.3274 24.1849 21.3499H22.6999ZM24.1474 18.2749H22.6099C22.3474 18.2749 22.1074 18.3724 21.9349 18.5524C21.7174 18.7624 21.6124 19.0474 21.6424 19.3324C21.6874 19.8274 22.1599 20.2249 22.6999 20.2249H24.1699C24.2674 20.2249 24.3574 20.1349 24.3574 20.0224V18.4774C24.3574 18.3649 24.2674 18.2824 24.1474 18.2749Z" fill="#A73719"/>
<path d="M18.5 17.5625H13.25C12.9425 17.5625 12.6875 17.3075 12.6875 17C12.6875 16.6925 12.9425 16.4375 13.25 16.4375H18.5C18.8075 16.4375 19.0625 16.6925 19.0625 17C19.0625 17.3075 18.8075 17.5625 18.5 17.5625Z" fill="#A73719"/>
</svg>
