<svg width="56" height="56" viewBox="0 0 56 56" fill="none" xmlns="http://www.w3.org/2000/svg">
<rect width="56" height="56" rx="28" fill="#D9EBFF"/>
<path d="M28.0001 34.3334C27.4667 34.3334 26.9334 34.2934 26.4267 34.2001C23.6001 33.7867 21.0267 32.1601 19.4001 29.7467C18.2667 28.0401 17.6667 26.0534 17.6667 24.0001C17.6667 18.3067 22.3067 13.6667 28.0001 13.6667C33.6934 13.6667 38.3334 18.3067 38.3334 24.0001C38.3334 26.0534 37.7334 28.0401 36.6001 29.7467C34.9601 32.1734 32.3867 33.7868 29.5334 34.2134C29.0667 34.2934 28.5334 34.3334 28.0001 34.3334ZM28.0001 15.6667C23.4001 15.6667 19.6667 19.4001 19.6667 24.0001C19.6667 25.6667 20.1467 27.2667 21.0534 28.6267C22.3734 30.5734 24.4401 31.8801 26.7334 32.2134C27.5867 32.3601 28.4267 32.3601 29.2134 32.2134C31.5467 31.8801 33.6134 30.5601 34.9334 28.6134C35.8401 27.2534 36.3201 25.6534 36.3201 23.9867C36.3334 19.4001 32.6001 15.6667 28.0001 15.6667Z" fill="#006FE5"/>
<path d="M20.6265 42.1199C20.4398 42.1199 20.2665 42.0932 20.0798 42.0532C19.2132 41.8532 18.5465 41.1865 18.3465 40.3199L17.8798 38.3599C17.8532 38.2399 17.7598 38.1465 17.6265 38.1065L15.4265 37.5865C14.5998 37.3865 13.9465 36.7732 13.7198 35.9599C13.4932 35.1465 13.7198 34.2665 14.3198 33.6665L19.5198 28.4666C19.7332 28.2532 20.0265 28.1465 20.3198 28.1732C20.6132 28.1999 20.8798 28.3599 21.0532 28.6132C22.3732 30.5599 24.4398 31.8799 26.7465 32.2132C27.5998 32.3599 28.4398 32.3599 29.2265 32.2132C31.5598 31.8799 33.6265 30.5599 34.9465 28.6132C35.1065 28.3599 35.3865 28.1999 35.6798 28.1732C35.9732 28.1465 36.2665 28.2532 36.4798 28.4666L41.6798 33.6665C42.2798 34.2665 42.5065 35.1465 42.2798 35.9599C42.0532 36.7732 41.3865 37.3999 40.5732 37.5865L38.3732 38.1065C38.2532 38.1332 38.1598 38.2265 38.1198 38.3599L37.6532 40.3199C37.4532 41.1865 36.7865 41.8532 35.9198 42.0532C35.0532 42.2666 34.1598 41.9599 33.5998 41.2799L27.9998 34.8399L22.3998 41.2932C21.9465 41.8265 21.3065 42.1199 20.6265 42.1199ZM20.1198 30.7065L15.7332 35.0932C15.6132 35.2132 15.6265 35.3466 15.6532 35.4266C15.6665 35.4932 15.7332 35.6265 15.8932 35.6532L18.0932 36.1732C18.9598 36.3732 19.6265 37.0399 19.8265 37.9065L20.2932 39.8665C20.3332 40.0399 20.4665 40.0932 20.5465 40.1199C20.6265 40.1332 20.7598 40.1466 20.8798 40.0132L25.9865 34.1332C23.7198 33.6932 21.6398 32.4799 20.1198 30.7065ZM30.0132 34.1199L35.1198 39.9865C35.2398 40.1332 35.3865 40.1332 35.4665 40.1065C35.5465 40.0932 35.6665 40.0266 35.7198 39.8532L36.1865 37.8932C36.3865 37.0266 37.0532 36.3599 37.9198 36.1599L40.1198 35.6399C40.2798 35.5999 40.3465 35.4799 40.3598 35.4132C40.3865 35.3465 40.3998 35.1999 40.2798 35.0799L35.8932 30.6932C34.3598 32.4665 32.2932 33.6799 30.0132 34.1199Z" fill="#006FE5"/>
<path d="M30.5201 29.1868C30.1734 29.1868 29.7601 29.0934 29.2668 28.8001L28.0001 28.0401L26.7334 28.7867C25.5734 29.4801 24.8134 29.0801 24.5334 28.8801C24.2534 28.6801 23.6534 28.0801 23.9601 26.7601L24.2801 25.3868L23.2134 24.4001C22.6268 23.8134 22.4134 23.1068 22.6134 22.4668C22.8134 21.8268 23.4001 21.3734 24.2268 21.2401L25.6534 21.0001L26.3334 19.5068C26.7201 18.7468 27.3201 18.3201 28.0001 18.3201C28.6801 18.3201 29.2934 18.7601 29.6668 19.5201L30.4534 21.0934L31.7734 21.2534C32.5868 21.3868 33.1734 21.8401 33.3868 22.4801C33.5868 23.1201 33.3734 23.8267 32.7868 24.4134L31.6801 25.5201L32.0268 26.7601C32.3334 28.0801 31.7334 28.6801 31.4534 28.8801C31.3068 29.0001 30.9868 29.1868 30.5201 29.1868ZM24.8134 23.1868L25.7334 24.1067C26.1601 24.5334 26.3734 25.2534 26.2401 25.8401L25.9868 26.9067L27.0534 26.2801C27.6268 25.9467 28.4001 25.9467 28.9601 26.2801L30.0268 26.9067L29.7868 25.8401C29.6534 25.2401 29.8534 24.5334 30.2801 24.1067L31.2001 23.1868L30.0401 22.9867C29.4801 22.8934 28.9201 22.4801 28.6668 21.9734L28.0001 20.6667L27.3334 22.0001C27.0934 22.4934 26.5334 22.9201 25.9734 23.0134L24.8134 23.1868Z" fill="#006FE5"/>
</svg>
