<svg width="35" height="34" viewBox="0 0 35 34" fill="none" xmlns="http://www.w3.org/2000/svg">
<rect x="0.5" width="34" height="34" rx="17" fill="white"/>
<path d="M25 25.0625H10C9.6925 25.0625 9.4375 24.8075 9.4375 24.5C9.4375 24.1925 9.6925 23.9375 10 23.9375H25C25.3075 23.9375 25.5625 24.1925 25.5625 24.5C25.5625 24.8075 25.3075 25.0625 25 25.0625Z" fill="#A73719"/>
<path d="M11.2754 24.5H10.1504L10.1879 15.4775C10.1879 14.84 10.4804 14.2475 10.9829 13.8575L16.2329 9.77004C16.9754 9.19254 18.0179 9.19254 18.7679 9.77004L24.0179 13.85C24.5129 14.24 24.8129 14.8475 24.8129 15.4775V24.5H23.6879V15.485C23.6879 15.2 23.5529 14.9225 23.3279 14.7425L18.0779 10.6625C17.7404 10.4 17.2679 10.4 16.9229 10.6625L11.6729 14.7501C11.4479 14.9225 11.3129 15.2 11.3129 15.485L11.2754 24.5Z" fill="#A73719"/>
<path d="M21.25 25.0625H13.75C13.4425 25.0625 13.1875 24.8075 13.1875 24.5V17.375C13.1875 16.445 13.945 15.6875 14.875 15.6875H20.125C21.055 15.6875 21.8125 16.445 21.8125 17.375V24.5C21.8125 24.8075 21.5575 25.0625 21.25 25.0625ZM14.3125 23.9375H20.6875V17.375C20.6875 17.0675 20.4325 16.8125 20.125 16.8125H14.875C14.5675 16.8125 14.3125 17.0675 14.3125 17.375V23.9375Z" fill="#A73719"/>
<path d="M16 21.875C15.6925 21.875 15.4375 21.62 15.4375 21.3125V20.1875C15.4375 19.88 15.6925 19.625 16 19.625C16.3075 19.625 16.5625 19.88 16.5625 20.1875V21.3125C16.5625 21.62 16.3075 21.875 16 21.875Z" fill="#A73719"/>
<path d="M18.625 14.1875H16.375C16.0675 14.1875 15.8125 13.9325 15.8125 13.625C15.8125 13.3175 16.0675 13.0625 16.375 13.0625H18.625C18.9325 13.0625 19.1875 13.3175 19.1875 13.625C19.1875 13.9325 18.9325 14.1875 18.625 14.1875Z" fill="#A73719"/>
</svg>
