<svg width="56" height="56" viewBox="0 0 56 56" fill="none" xmlns="http://www.w3.org/2000/svg">
<rect width="56" height="56" rx="28" fill="#D9EBFF"/>
<path d="M28 33.0001C22.48 33.0001 18 28.6667 18 23.3334C18 18.0001 22.48 13.6667 28 13.6667C33.52 13.6667 38 18.0001 38 23.3334C38 28.6667 33.52 33.0001 28 33.0001ZM28 15.6667C23.5867 15.6667 20 19.1067 20 23.3334C20 27.5601 23.5867 31.0001 28 31.0001C32.4133 31.0001 36 27.5601 36 23.3334C36 19.1067 32.4133 15.6667 28 15.6667Z" fill="#006FE5"/>
<path d="M32.8267 42.3332C32.4534 42.3332 32.08 42.2399 31.6934 42.0665L28.1067 40.3732C28.0667 40.3599 27.92 40.3599 27.8667 40.3732L24.3067 42.0532C23.5201 42.4266 22.6934 42.4132 22.0534 41.9999C21.3867 41.5732 21.0001 40.7866 21.0134 39.8532L21.0267 30.0132C21.0267 29.4666 21.4534 28.9866 22.0267 29.0132C22.5734 29.0132 23.0267 29.4666 23.0267 30.0132L23.0134 39.8532C23.0134 40.1466 23.0934 40.2932 23.1334 40.3066C23.1601 40.3199 23.2801 40.3332 23.4667 40.2399L27.04 38.5465C27.6134 38.2799 28.4001 38.2799 28.9734 38.5465L32.5601 40.2399C32.7467 40.3332 32.8667 40.3199 32.8934 40.3066C32.9334 40.2799 33.0134 40.1332 33.0134 39.8532V29.7732C33.0134 29.2265 33.4667 28.7732 34.0134 28.7732C34.5601 28.7732 35.0134 29.2265 35.0134 29.7732V39.8532C35.0134 40.7999 34.6267 41.5732 33.9601 41.9999C33.6134 42.2265 33.2267 42.3332 32.8267 42.3332Z" fill="#006FE5"/>
</svg>
