<svg width="35" height="34" viewBox="0 0 35 34" fill="none" xmlns="http://www.w3.org/2000/svg">
<rect x="0.5" width="34" height="34" rx="17" fill="white"/>
<path d="M20.3576 23.1349C20.1626 23.1349 19.9601 23.1274 19.7426 23.1049C19.3526 23.0749 18.9101 22.9999 18.4526 22.8874L17.1926 22.5874C13.7351 21.7699 12.6026 19.9399 13.4126 16.4899L14.1476 13.3474C14.3126 12.6349 14.5076 12.0574 14.7476 11.5774C16.0376 8.91489 18.5051 9.15489 20.2601 9.56739L21.5126 9.85989C23.2676 10.2724 24.3776 10.9249 25.0001 11.9224C25.6151 12.9199 25.7126 14.2024 25.3001 15.9574L24.5651 19.0924C23.9201 21.8374 22.5776 23.1349 20.3576 23.1349ZM18.3401 10.4374C17.0876 10.4374 16.2926 10.9549 15.7601 12.0649C15.5651 12.4699 15.3926 12.9724 15.2426 13.6024L14.5076 16.7449C13.8401 19.5799 14.6126 20.8174 17.4476 21.4924L18.7076 21.7924C19.1126 21.8899 19.4951 21.9499 19.8401 21.9799C21.8801 22.1824 22.8926 21.2899 23.4626 18.8374L24.1976 15.7024C24.5351 14.2549 24.4901 13.2424 24.0401 12.5149C23.5901 11.7874 22.7051 11.2924 21.2501 10.9549L19.9976 10.6624C19.3751 10.5124 18.8201 10.4374 18.3401 10.4374Z" fill="#A73719"/>
<path d="M14.7473 24.6875C12.8198 24.6875 11.5898 23.5325 10.8023 21.095L9.84229 18.1325C8.77729 14.8325 9.72979 12.9725 13.0148 11.9075L14.1998 11.525C14.5898 11.405 14.8823 11.3225 15.1448 11.2775C15.3623 11.2325 15.5723 11.315 15.6998 11.4875C15.8273 11.66 15.8498 11.885 15.7598 12.08C15.5648 12.4775 15.3923 12.98 15.2498 13.61L14.5148 16.7525C13.8473 19.5875 14.6198 20.825 17.4548 21.5L18.7148 21.8C19.1198 21.8975 19.5023 21.9575 19.8473 21.9875C20.0873 22.01 20.2823 22.175 20.3498 22.4075C20.4098 22.64 20.3198 22.88 20.1248 23.015C19.6298 23.3525 19.0073 23.6375 18.2198 23.8925L17.0348 24.2825C16.1723 24.5525 15.4223 24.6875 14.7473 24.6875ZM14.3348 12.665L13.3673 12.98C10.6898 13.8425 10.0523 15.1025 10.9148 17.7875L11.8748 20.75C12.7448 23.4275 14.0048 24.0725 16.6823 23.21L17.8673 22.82C17.9123 22.805 17.9498 22.79 17.9948 22.775L17.1998 22.5875C13.7423 21.77 12.6098 19.94 13.4198 16.49L14.1548 13.3475C14.2073 13.1075 14.2673 12.875 14.3348 12.665Z" fill="#A73719"/>
<path d="M21.6175 15.8826C21.5725 15.8826 21.5275 15.8751 21.475 15.8676L17.8375 14.9451C17.5375 14.8701 17.3575 14.5626 17.4325 14.2626C17.5075 13.9626 17.815 13.7826 18.115 13.8576L21.7525 14.7801C22.0525 14.8551 22.2325 15.1626 22.1575 15.4626C22.0975 15.7101 21.865 15.8826 21.6175 15.8826Z" fill="#A73719"/>
<path d="M19.4199 18.4174C19.3749 18.4174 19.3299 18.4099 19.2774 18.4024L17.0949 17.8474C16.7949 17.7724 16.6149 17.4649 16.6899 17.1649C16.7649 16.8649 17.0724 16.6849 17.3724 16.7599L19.5549 17.3149C19.8549 17.3899 20.0349 17.6974 19.9599 17.9974C19.8999 18.2524 19.6749 18.4174 19.4199 18.4174Z" fill="#A73719"/>
</svg>
